<?xml version="1.0" standalone="no"?>
<!DOCTYPE svg PUBLIC "-//W3C//DTD SVG 20010904//EN"
 "http://www.w3.org/TR/2001/REC-SVG-20010904/DTD/svg10.dtd">
<svg version="1.0" xmlns="http://www.w3.org/2000/svg"
 width="320.000000pt" height="320.000000pt" viewBox="0 0 320.000000 320.000000"
 preserveAspectRatio="xMidYMid meet">
<metadata>
Created by potrace 1.15, written by Peter Selinger 2001-2017
</metadata>
<g transform="translate(0.000000,320.000000) scale(0.100000,-0.100000)"
fill="#000000" stroke="none">
<path d="M1254 2750 c-37 -15 -64 -59 -64 -104 0 -47 20 -75 71 -101 l30 -16
-3 -237 -3 -237 -129 -305 c-226 -538 -328 -784 -347 -839 -56 -161 9 -306
171 -380 151 -69 460 -102 772 -83 226 14 297 24 396 58 177 59 262 160 262
311 0 42 -12 80 -54 180 -30 71 -99 236 -154 368 -55 132 -137 328 -182 435
-45 107 -88 211 -96 230 -10 26 -13 96 -14 267 l0 233 40 25 c47 29 60 51 60
99 0 25 -9 45 -29 68 l-29 33 -339 2 c-186 1 -348 -2 -359 -7z m667 -77 c9 -9
10 -18 1 -37 -8 -19 -20 -25 -48 -28 -31 -2 -39 -8 -45 -30 -13 -50 -1 -519
14 -563 15 -41 117 -289 323 -780 153 -366 152 -365 159 -421 12 -97 -63 -184
-193 -224 -142 -44 -241 -54 -532 -55 -245 0 -288 3 -392 23 -150 28 -215 53
-271 103 -53 46 -71 92 -65 158 3 29 70 201 183 471 97 234 197 472 220 530
24 58 53 128 65 155 12 28 25 75 29 105 l6 55 65 5 c56 4 65 8 68 26 4 30 -16
42 -78 46 -51 3 -55 5 -55 28 0 23 4 25 45 28 80 4 92 10 88 40 -3 25 -7 27
-59 33 -66 7 -79 14 -79 40 0 16 7 19 43 20 60 1 91 12 95 32 6 32 -17 47 -74
47 -58 0 -71 9 -54 40 10 18 22 20 158 22 l147 3 0 30 0 30 -197 5 c-128 3
-201 9 -208 16 -18 18 -8 47 18 54 13 3 156 5 317 5 218 0 297 -3 306 -12z"/>
<path d="M1199 1433 c-12 -32 -39 -96 -60 -143 -101 -232 -189 -461 -189 -493
0 -83 97 -137 302 -167 73 -11 170 -20 216 -20 l82 0 -2 168 -3 167 -53 6
c-72 9 -139 52 -177 113 -26 43 -30 59 -30 123 0 88 5 93 93 93 96 0 168 -44
212 -129 l21 -42 29 25 c46 38 112 59 170 54 28 -3 56 -10 62 -16 20 -20 21
-107 3 -161 -29 -89 -132 -161 -229 -161 l-26 0 0 -122 0 -121 143 6 c238 10
399 50 459 114 43 46 34 91 -81 363 -57 135 -117 280 -135 322 l-31 78 -376 0
-377 0 -23 -57z"/>
<path d="M1354 1195 c-8 -19 12 -78 38 -111 24 -30 91 -63 127 -64 23 0 23 2
17 47 -7 55 -42 104 -89 127 -43 20 -86 21 -93 1z"/>
<path d="M1710 1088 c-47 -32 -71 -68 -77 -118 l-6 -43 46 5 c79 9 137 71 137
147 0 28 -3 31 -34 31 -18 0 -48 -10 -66 -22z"/>
</g>
</svg>
